<svg width="35" height="35" viewBox="0 0 35 35" fill="none" xmlns="http://www.w3.org/2000/svg">
<path d="M17.5 2L0 10.0769L4.66667 12.1538V16.0769C3.26667 16.5385 2.33333 17.9231 2.33333 19.3077C2.33333 20.6923 3.26667 22.0769 4.66667 22.5385V22.7692L2.56667 27.6154C1.86667 29.6923 2.33333 32 5.83333 32C9.33333 32 9.8 29.6923 9.1 27.6154L7 22.7692C8.4 22.0769 9.33333 20.9231 9.33333 19.3077C9.33333 17.6923 8.4 16.5385 7 16.0769V13.3077L17.5 18.1538L35 10.0769L17.5 2ZM27.7667 17L17.2667 21.6154L11.6667 19.0769V19.3077C11.6667 20.9231 10.9667 22.3077 9.8 23.4615L11.2 26.6923V26.9231C11.4333 27.8462 11.6667 28.7692 11.4333 29.6923C13.0667 30.3846 14.9333 30.8462 17.2667 30.8462C24.9667 30.8462 27.7667 26.2308 27.7667 23.9231V17Z" fill="white"/>
</svg>
