<svg width="35" height="35" viewBox="0 0 35 35" fill="none" xmlns="http://www.w3.org/2000/svg">
<g clip-path="url(#clip0_1_49)">
<path d="M17.5 2.33331L0 10.5L4.66667 12.6V16.5666C3.26667 17.0333 2.33333 18.4333 2.33333 19.8333C2.33333 21.2333 3.26667 22.6333 4.66667 23.1V23.3333L2.56667 28.2333C1.86667 30.3333 2.33333 32.6666 5.83333 32.6666C9.33333 32.6666 9.8 30.3333 9.1 28.2333L7 23.3333C8.4 22.6333 9.33333 21.4666 9.33333 19.8333C9.33333 18.2 8.4 17.0333 7 16.5666V13.7666L17.5 18.6666L35 10.5L17.5 2.33331ZM27.7667 17.5L17.2667 22.1666L11.6667 19.6V19.8333C11.6667 21.4666 10.9667 22.8666 9.8 24.0333L11.2 27.3V27.5333C11.4333 28.4666 11.6667 29.4 11.4333 30.3333C13.0667 31.0333 14.9333 31.5 17.2667 31.5C24.9667 31.5 27.7667 26.8333 27.7667 24.5V17.5Z" fill="#FFB200"/>
</g>
<defs>
<clipPath id="clip0_1_49">
<rect width="35" height="35" fill="white"/>
</clipPath>
</defs>
</svg>
