<svg width="24" height="24" viewBox="0 0 24 24" fill="none" xmlns="http://www.w3.org/2000/svg">
<path fill-rule="evenodd" clip-rule="evenodd" d="M3 12.0096C3 12.5581 3.43986 13.0016 3.98797 12.9798C6.21525 12.8915 11.4043 12.4258 11 10C10 4 12.5 3 10.5 3L4 3C3.44772 3 3 3.44772 3 4V12.0096ZM3 21H11C11 21 11 17.5005 10 15.0002C9 12.4999 3 14.4997 3 14.4997V21ZM13.0038 21.0002H21.0038V11.0002C21.0038 11.0002 15.4433 9.04855 13.0038 11.0002C9.95428 13.4398 13.0038 21.0002 13.0038 21.0002ZM12.9972 3C12.9972 3 11.1227 10.406 12.9972 9C14.9971 7.5 20.9972 9 20.9972 9V3H12.9972Z" fill="#898989"/>
</svg>
