<svg width="24" height="24" viewBox="0 0 24 24" fill="none" xmlns="http://www.w3.org/2000/svg">
<path d="M16.027 8.867C16.137 8.96433 16.255 9.01733 16.381 9.026C16.507 9.03467 16.625 8.98367 16.735 8.873L18.904 6.703C19.014 6.593 19.069 6.471 19.069 6.337C19.069 6.203 19.0123 6.07967 18.899 5.967C18.7957 5.86367 18.6793 5.812 18.55 5.812C18.4207 5.812 18.3027 5.86533 18.196 5.972L16.026 8.14C15.92 8.24667 15.867 8.367 15.867 8.501C15.867 8.635 15.9203 8.757 16.027 8.867ZM3.615 21C3.171 21 2.791 20.8417 2.475 20.525C2.15833 20.209 2 19.829 2 19.385V6.615C2 6.171 2.15833 5.791 2.475 5.475C2.791 5.15833 3.17067 5 3.614 5H11.5V11.885C11.5 12.329 11.6583 12.709 11.975 13.025C12.291 13.3417 12.671 13.5 13.115 13.5H18V19.385C18 19.829 17.8417 20.209 17.525 20.525C17.209 20.8417 16.829 21 16.385 21H3.615ZM18 11.5C17.4747 11.5 16.9703 11.4133 16.487 11.24C16.0037 11.0667 15.5537 10.8167 15.137 10.49L14.454 11.11C14.3433 11.2033 14.2213 11.2533 14.088 11.26C13.9547 11.2667 13.8407 11.223 13.746 11.129C13.6393 11.0223 13.586 10.9043 13.586 10.775C13.586 10.6457 13.6393 10.5277 13.746 10.421L14.435 9.751C14.155 9.339 13.9293 8.90167 13.758 8.439C13.5867 7.97633 13.5007 7.49667 13.5 7C13.5 5.75467 13.9387 4.69333 14.816 3.816C15.6933 2.93867 16.7547 2.5 18 2.5H22.5V7C22.5 8.24533 22.0613 9.30667 21.184 10.184C20.3067 11.0613 19.2453 11.5 18 11.5ZM5.73 17.5H6.73V11.5H5.73V17.5ZM9.5 17.5H10.5V8.5H9.5V17.5ZM13.27 17.5H14.27V14.5H13.27V17.5Z" fill="#898989"/>
</svg>
