<svg width="17" height="16" viewBox="0 0 17 16" fill="none" xmlns="http://www.w3.org/2000/svg">
<path fill-rule="evenodd" clip-rule="evenodd" d="M10.7311 9.54717H10.1813L9.98641 9.36192C10.6685 8.57976 11.0791 7.56432 11.0791 6.45969C11.0791 3.99657 9.05378 2 6.55518 2C4.05658 2 2.03125 3.99657 2.03125 6.45969C2.03125 8.92281 4.05658 10.9194 6.55518 10.9194C7.67572 10.9194 8.70579 10.5146 9.49921 9.8422L9.68713 10.0343V10.5763L13.1671 14L14.2041 12.9777L10.7311 9.54717ZM6.55383 9.54703C4.82081 9.54703 3.42188 8.16795 3.42188 6.45955C3.42188 4.75114 4.82081 3.37207 6.55383 3.37207C8.28684 3.37207 9.68578 4.75114 9.68578 6.45955C9.68578 8.16795 8.28684 9.54703 6.55383 9.54703Z" fill="#898989"/>
</svg>
